<?xml version="1.0" encoding="UTF-8"?>
<!DOCTYPE svg PUBLIC "-//W3C//DTD SVG 1.1//EN" "http://www.w3.org/Graphics/SVG/1.1/DTD/svg11.dtd">
<svg xmlns="http://www.w3.org/2000/svg" version="1.1" width="512px" height="512px" style="shape-rendering:geometricPrecision; text-rendering:geometricPrecision; image-rendering:optimizeQuality; fill-rule:evenodd; clip-rule:evenodd" xmlns:xlink="http://www.w3.org/1999/xlink">
<g><path style="opacity:0.999" fill="#2f2e2e" d="M 450.5,37.5 C 452.167,39.8333 454.167,41.8333 456.5,43.5C 467.094,54.3524 473.761,67.3524 476.5,82.5C 485.173,82.3336 493.84,82.5002 502.5,83C 506.685,84.6878 509.685,87.5212 511.5,91.5C 511.5,95.5 511.5,99.5 511.5,103.5C 509.685,107.479 506.685,110.312 502.5,112C 493.84,112.5 485.173,112.666 476.5,112.5C 474.611,121.56 473.611,130.727 473.5,140C 474.888,154.496 476.222,168.996 477.5,183.5C 477.825,190.687 477.491,197.687 476.5,204.5C 460.347,168.848 434.347,143.014 398.5,127C 376.232,117.121 352.898,112.288 328.5,112.5C 324.605,103.923 322.105,94.9232 321,85.5C 320.654,73.6416 320.487,61.975 320.5,50.5C 345.374,18.4856 377.707,7.65224 417.5,18C 430.174,21.8773 441.174,28.3773 450.5,37.5 Z"/></g>
<g><path style="opacity:0.024" fill="#933b57" d="M 450.5,37.5 C 453.5,38.5 455.5,40.5 456.5,43.5C 454.167,41.8333 452.167,39.8333 450.5,37.5 Z"/></g>
<g><path style="opacity:1" fill="#e5e5e5" d="M 320.5,50.5 C 320.487,61.975 320.654,73.6416 321,85.5C 322.105,94.9232 324.605,103.923 328.5,112.5C 335.571,125.087 344.738,136.087 356,145.5C 371.448,164.337 379.281,186.004 379.5,210.5C 342.292,237.584 300.959,255.584 255.5,264.5C 255.5,217.167 255.5,169.833 255.5,122.5C 276.455,97.8769 298.122,73.8769 320.5,50.5 Z"/></g>
<g><path style="opacity:1" fill="#eb3d92" d="M 328.5,112.5 C 352.898,112.288 376.232,117.121 398.5,127C 434.347,143.014 460.347,168.848 476.5,204.5C 476.833,205.5 477.5,206.167 478.5,206.5C 473.433,276.346 440.766,328.68 380.5,363.5C 370.431,368.204 360.431,372.87 350.5,377.5C 337.788,381.928 324.788,385.261 311.5,387.5C 301.371,388.659 291.371,389.659 281.5,390.5C 272.812,390.587 264.146,390.253 255.5,389.5C 255.5,372.5 255.5,355.5 255.5,338.5C 292.31,327.52 324.81,309.186 353,283.5C 371.221,262.677 380.055,238.344 379.5,210.5C 379.281,186.004 371.448,164.337 356,145.5C 344.738,136.087 335.571,125.087 328.5,112.5 Z"/></g>
<g><path style="opacity:0.994" fill="#fef3f3" d="M 255.5,122.5 C 255.5,169.833 255.5,217.167 255.5,264.5C 255.5,264.833 255.5,265.167 255.5,265.5C 217.869,272.909 179.869,275.742 141.5,274C 135.253,273.9 129.253,273.067 123.5,271.5C 167.529,221.808 211.529,172.141 255.5,122.5 Z"/></g>
<g><path style="opacity:0.849" fill="#913c5b" d="M 477.5,183.5 C 478.492,190.982 478.825,198.648 478.5,206.5C 477.5,206.167 476.833,205.5 476.5,204.5C 477.491,197.687 477.825,190.687 477.5,183.5 Z"/></g>
<g><path style="opacity:1" fill="#2e2e2e" d="M 379.5,210.5 C 380.055,238.344 371.221,262.677 353,283.5C 324.81,309.186 292.31,327.52 255.5,338.5C 255.5,314.167 255.5,289.833 255.5,265.5C 255.5,265.167 255.5,264.833 255.5,264.5C 300.959,255.584 342.292,237.584 379.5,210.5 Z"/></g>
<g><path style="opacity:0.998" fill="#383d40" d="M 255.5,265.5 C 255.5,289.833 255.5,314.167 255.5,338.5C 245.902,341.42 236.235,344.086 226.5,346.5C 185.466,354.524 144.133,356.524 102.5,352.5C 93.8591,351.95 85.5257,350.117 77.5,347C 72.7548,341.731 71.2548,335.564 73,328.5C 89.3271,309.009 106.16,290.009 123.5,271.5C 129.253,273.067 135.253,273.9 141.5,274C 179.869,275.742 217.869,272.909 255.5,265.5 Z"/></g>
<g><path style="opacity:0.992" fill="#fd6277" d="M 255.5,338.5 C 255.5,355.5 255.5,372.5 255.5,389.5C 236.357,387.672 217.69,383.672 199.5,377.5C 208.104,366.891 217.104,356.557 226.5,346.5C 236.235,344.086 245.902,341.42 255.5,338.5 Z"/></g>
<g><path style="opacity:0.992" fill="#585353" d="M 226.5,346.5 C 217.104,356.557 208.104,366.891 199.5,377.5C 188.528,389.474 177.528,401.474 166.5,413.5C 155.877,423.125 145.877,433.458 136.5,444.5C 127.373,454.797 118.039,464.963 108.5,475C 105.626,476.899 102.459,477.733 99,477.5C 68.2797,469.193 37.7797,460.026 7.5,450C 3.92315,447.926 1.25648,445.093 -0.5,441.5C -0.5,437.833 -0.5,434.167 -0.5,430.5C 0.879222,427.614 2.87922,425.114 5.5,423C 38.2548,399.968 70.5882,376.468 102.5,352.5C 144.133,356.524 185.466,354.524 226.5,346.5 Z"/></g>
<g><path style="opacity:1" fill="#feb354" d="M 380.5,363.5 C 380.5,380.167 380.5,396.833 380.5,413.5C 370.5,413.5 360.5,413.5 350.5,413.5C 350.5,401.5 350.5,389.5 350.5,377.5C 360.431,372.87 370.431,368.204 380.5,363.5 Z"/></g>
<g><path style="opacity:1" fill="#fed221" d="M 311.5,387.5 C 311.5,396.167 311.5,404.833 311.5,413.5C 301.5,413.5 291.5,413.5 281.5,413.5C 281.5,405.833 281.5,398.167 281.5,390.5C 291.371,389.659 301.371,388.659 311.5,387.5 Z"/></g>
<g><path style="opacity:0.968" fill="#383d40" d="M 166.5,413.5 C 196.167,413.5 225.833,413.5 255.5,413.5C 255.5,423.833 255.5,434.167 255.5,444.5C 215.833,444.5 176.167,444.5 136.5,444.5C 145.877,433.458 155.877,423.125 166.5,413.5 Z"/></g>
<g><path style="opacity:1" fill="#2e2e2e" d="M 255.5,413.5 C 264.167,413.5 272.833,413.5 281.5,413.5C 291.5,413.5 301.5,413.5 311.5,413.5C 324.5,413.5 337.5,413.5 350.5,413.5C 360.5,413.5 370.5,413.5 380.5,413.5C 420.501,413.333 460.501,413.5 500.5,414C 505.594,415.599 509.261,418.766 511.5,423.5C 511.5,427.167 511.5,430.833 511.5,434.5C 509.261,439.234 505.594,442.401 500.5,444C 486.833,444.333 473.167,444.667 459.5,445C 472.833,453.333 486.167,461.667 499.5,470C 503.766,475.995 504.599,482.495 502,489.5C 498.983,494.592 494.483,496.926 488.5,496.5C 484.877,496.756 481.544,495.923 478.5,494C 452.833,477.667 427.167,461.333 401.5,445C 352.834,444.5 304.168,444.333 255.5,444.5C 255.5,434.167 255.5,423.833 255.5,413.5 Z"/></g>
</svg>
