<?xml version="1.0" encoding="UTF-8"?>
<!DOCTYPE svg PUBLIC "-//W3C//DTD SVG 1.1//EN" "http://www.w3.org/Graphics/SVG/1.1/DTD/svg11.dtd">
<svg xmlns="http://www.w3.org/2000/svg" version="1.1" width="512px" height="512px" style="shape-rendering:geometricPrecision; text-rendering:geometricPrecision; image-rendering:optimizeQuality; fill-rule:evenodd; clip-rule:evenodd" xmlns:xlink="http://www.w3.org/1999/xlink">
<g><path style="opacity:0.989" fill="#948192" d="M 389.5,-0.5 C 397.5,-0.5 405.5,-0.5 413.5,-0.5C 440.471,6.81488 455.137,24.4816 457.5,52.5C 456.503,70.9925 456.17,89.6592 456.5,108.5C 447.413,97.7442 437.08,88.4108 425.5,80.5C 425.5,80.1667 425.5,79.8333 425.5,79.5C 425.667,67.4954 425.5,55.4954 425,43.5C 419.969,22.0575 407.136,7.72419 386.5,0.5C 387.791,0.737305 388.791,0.403972 389.5,-0.5 Z"/></g>
<g><path style="opacity:0.995" fill="#aa99a7" d="M 386.5,0.5 C 407.136,7.72419 419.969,22.0575 425,43.5C 425.5,55.4954 425.667,67.4954 425.5,79.5C 393.774,57.1517 358.441,47.1517 319.5,49.5C 334.139,22.8891 356.472,6.55581 386.5,0.5 Z"/></g>
<g><path style="opacity:1" fill="#675965" d="M 412.5,37.5 C 418.915,36.61 422.582,39.2767 423.5,45.5C 423.097,50.0697 420.597,52.403 416,52.5C 409.435,51.7287 407.102,48.0621 409,41.5C 410.376,40.2949 411.542,38.9616 412.5,37.5 Z"/></g>
<g><path style="opacity:0.999" fill="#f48a96" d="M 319.5,49.5 C 358.441,47.1517 393.774,57.1517 425.5,79.5C 425.5,79.8333 425.5,80.1667 425.5,80.5C 424.908,93.0058 426.075,105.339 429,117.5C 453.824,192.259 441.491,259.925 392,320.5C 360.003,357.749 319.503,378.415 270.5,382.5C 243.013,381.136 216.346,375.803 190.5,366.5C 227.175,355.501 255.175,333.501 274.5,300.5C 284.155,287.872 293.822,275.205 303.5,262.5C 317.5,243.833 331.5,225.167 345.5,206.5C 370.383,178.368 372.883,148.368 353,116.5C 338.149,98.6465 319.316,90.6465 296.5,92.5C 294.5,92.5 292.5,92.5 290.5,92.5C 299.782,77.8885 309.449,63.5551 319.5,49.5 Z"/></g>
<g><path style="opacity:0.984" fill="#665864" d="M 457.5,52.5 C 473.452,57.0591 487.952,64.3924 501,74.5C 503.157,77.8649 502.991,81.0316 500.5,84C 484.995,90.7032 470.662,99.2032 457.5,109.5C 456.833,109.5 456.5,109.167 456.5,108.5C 456.17,89.6592 456.503,70.9925 457.5,52.5 Z"/></g>
<g><path style="opacity:0.985" fill="#f07281" d="M 425.5,80.5 C 437.08,88.4108 447.413,97.7442 456.5,108.5C 456.5,109.167 456.833,109.5 457.5,109.5C 476.469,159.505 477.302,209.838 460,260.5C 441.374,306.956 410.207,342.289 366.5,366.5C 365.883,366.389 365.383,366.056 365,365.5C 360.038,367.754 355.204,370.088 350.5,372.5C 333.04,378.725 315.04,382.392 296.5,383.5C 290.833,382.167 285.167,382.167 279.5,383.5C 276.287,383.81 273.287,383.477 270.5,382.5C 319.503,378.415 360.003,357.749 392,320.5C 441.491,259.925 453.824,192.259 429,117.5C 426.075,105.339 424.908,93.0058 425.5,80.5 Z"/></g>
<g><path style="opacity:0.996" fill="#e1dde1" d="M 290.5,92.5 C 292.5,92.5 294.5,92.5 296.5,92.5C 300.967,92.1326 305.3,92.6326 309.5,94C 336.241,117.142 342.408,144.975 328,177.5C 317.669,191.992 307.169,206.325 296.5,220.5C 295.833,220.5 295.5,220.833 295.5,221.5C 281.294,224.401 266.961,226.568 252.5,228C 249.222,230.288 248.722,233.121 251,236.5C 256.502,243.18 263.002,248.513 270.5,252.5C 270.392,254.783 269.559,256.783 268,258.5C 257.616,272.044 247.45,285.711 237.5,299.5C 204.055,296.685 172.722,287.019 143.5,270.5C 179.446,218.047 215.613,165.714 252,113.5C 262.314,101.925 275.148,94.9254 290.5,92.5 Z"/></g>
<g><path style="opacity:1" fill="#cbc3cb" d="M 296.5,92.5 C 319.316,90.6465 338.149,98.6465 353,116.5C 372.883,148.368 370.383,178.368 345.5,206.5C 329.394,211.98 313.06,216.647 296.5,220.5C 307.169,206.325 317.669,191.992 328,177.5C 342.408,144.975 336.241,117.142 309.5,94C 305.3,92.6326 300.967,92.1326 296.5,92.5 Z"/></g>
<g><path style="opacity:1" fill="#7e6c7a" d="M 345.5,206.5 C 331.5,225.167 317.5,243.833 303.5,262.5C 292.319,262.103 281.985,259.103 272.5,253.5C 279.667,242.51 287.334,231.843 295.5,221.5C 295.5,220.833 295.833,220.5 296.5,220.5C 313.06,216.647 329.394,211.98 345.5,206.5 Z"/></g>
<g><path style="opacity:1" fill="#948192" d="M 295.5,221.5 C 287.334,231.843 279.667,242.51 272.5,253.5C 271.833,253.167 271.167,252.833 270.5,252.5C 263.002,248.513 256.502,243.18 251,236.5C 248.722,233.121 249.222,230.288 252.5,228C 266.961,226.568 281.294,224.401 295.5,221.5 Z"/></g>
<g><path style="opacity:1" fill="#cac3cb" d="M 270.5,252.5 C 271.167,252.833 271.833,253.167 272.5,253.5C 281.985,259.103 292.319,262.103 303.5,262.5C 293.822,275.205 284.155,287.872 274.5,300.5C 263.167,300.5 251.833,300.5 240.5,300.5C 239.791,299.596 238.791,299.263 237.5,299.5C 247.45,285.711 257.616,272.044 268,258.5C 269.559,256.783 270.392,254.783 270.5,252.5 Z"/></g>
<g><path style="opacity:0.995" fill="#948192" d="M 143.5,270.5 C 172.722,287.019 204.055,296.685 237.5,299.5C 238.791,299.263 239.791,299.596 240.5,300.5C 238.712,300.215 237.045,300.548 235.5,301.5C 203.783,345.512 160.783,364.179 106.5,357.5C 96.2115,354.923 92.7115,348.59 96,338.5C 112.086,315.93 127.919,293.264 143.5,270.5 Z"/></g>
<g><path style="opacity:1" fill="#7d6c7a" d="M 240.5,300.5 C 251.833,300.5 263.167,300.5 274.5,300.5C 255.175,333.501 227.175,355.501 190.5,366.5C 183.543,367.78 176.543,368.78 169.5,369.5C 149.006,370.773 129.339,367.439 110.5,359.5C 108.847,359.34 107.514,358.674 106.5,357.5C 160.783,364.179 203.783,345.512 235.5,301.5C 237.045,300.548 238.712,300.215 240.5,300.5 Z"/></g>
<g><path style="opacity:0.982" fill="#948192" d="M 110.5,359.5 C 129.339,367.439 149.006,370.773 169.5,369.5C 130.5,416.833 91.5,464.167 52.5,511.5C 50.1667,511.5 47.8333,511.5 45.5,511.5C 44.4955,510.317 43.6622,508.984 43,507.5C 41.7952,500.476 40.4619,493.476 39,486.5C 38.1667,485.667 37.3333,484.833 36.5,484C 28.5,483.667 20.5,483.333 12.5,483C 8.7873,481.309 7.62063,478.475 9,474.5C 42.7968,436.368 76.9635,398.535 111.5,361C 110.944,360.617 110.611,360.117 110.5,359.5 Z"/></g>
<g><path style="opacity:0.971" fill="#ffc344" d="M 366.5,366.5 C 368.233,378.897 370.4,391.231 373,403.5C 377.476,409.61 382.309,415.443 387.5,421C 393.167,421.333 398.833,421.667 404.5,422C 408.212,424.513 409.378,428.013 408,432.5C 407.167,434.667 405.667,436.167 403.5,437C 395.833,437.667 388.167,437.667 380.5,437C 375.023,431.854 369.856,426.354 365,420.5C 360.144,426.354 354.977,431.854 349.5,437C 341.833,437.667 334.167,437.667 326.5,437C 321.931,434.459 320.431,430.625 322,425.5C 322.833,424.5 323.667,423.5 324.5,422.5C 330.449,421.708 336.449,421.208 342.5,421C 347.544,415.624 352.211,409.958 356.5,404C 354.056,393.613 352.056,383.113 350.5,372.5C 355.204,370.088 360.038,367.754 365,365.5C 365.383,366.056 365.883,366.389 366.5,366.5 Z"/></g>
<g><path style="opacity:0.972" fill="#fec344" d="M 296.5,383.5 C 299.331,399.154 302.165,414.82 305,430.5C 309.476,436.61 314.309,442.443 319.5,448C 324.833,448.333 330.167,448.667 335.5,449C 342.606,453.101 343.273,458.101 337.5,464C 328.833,464.667 320.167,464.667 311.5,464C 306.99,458.658 302.323,453.492 297.5,448.5C 292.677,453.492 288.01,458.658 283.5,464C 274.833,464.667 266.167,464.667 257.5,464C 251.806,458.138 252.473,453.138 259.5,449C 264.833,448.667 270.167,448.333 275.5,448C 280.323,442.676 284.657,437.009 288.5,431C 285.444,415.162 282.444,399.329 279.5,383.5C 285.167,382.167 290.833,382.167 296.5,383.5 Z"/></g>
</svg>
