<?xml version="1.0" encoding="UTF-8"?>
<svg version="1.1" xmlns="http://www.w3.org/2000/svg" width="512" height="512">
<path d="M0 0 C0.92603027 0.17160645 1.85206055 0.34321289 2.80615234 0.52001953 C57.58973791 10.75592406 108.81799451 40.88303339 141 87 C163.91896814 120.98748604 180.97562059 161.2937037 181.203125 202.8984375 C181.20882507 203.73226959 181.21452515 204.56610168 181.22039795 205.42520142 C181.22979396 207.1849849 181.23636029 208.94478554 181.24023438 210.70458984 C181.24984766 213.33334135 181.2808841 215.96127813 181.3125 218.58984375 C181.40753796 233.62582204 179.57653337 248.049996 175.3125 262.5 C175.05758789 263.37108398 174.80267578 264.24216797 174.54003906 265.13964844 C167.14637924 289.45834077 153.83154614 310.27773767 136.8125 328.9375 C136.3498877 329.44506836 135.88727539 329.95263672 135.41064453 330.47558594 C123.28029852 343.46174085 108.26444493 354.33997778 92.79882812 362.99121094 C91.05822801 363.96734553 89.33344367 364.97151786 87.609375 365.9765625 C74.19541329 373.52567548 59.61268387 379.21825355 45 384 C45.43231934 384.39678955 45.86463867 384.7935791 46.31005859 385.20239258 C59.62507287 397.45821781 71.56087697 409.45835648 81 425 C81.39074707 425.64146973 81.78149414 426.28293945 82.18408203 426.94384766 C92.47894516 444.20275584 104.22922167 470.24739886 99.34765625 490.73828125 C96.65757522 498.34670784 92.09874994 503.60069919 85 507.4375 C78.84926835 509.88079582 71.46319099 510.21137805 65 509 C62.55078125 506.58984375 62.55078125 506.58984375 61 504 C61 503.34 61 502.68 61 502 C54.4 502 47.8 502 41 502 C40.34 503.65 39.68 505.3 39 507 C36.4560838 509.5439162 35.56755741 509.25255035 32.03974342 509.26006222 C30.98420946 509.26712781 29.92867549 509.2741934 28.84115565 509.2814731 C27.67231849 509.27905802 26.50348132 509.27664293 25.29922485 509.27415466 C24.06458288 509.27939134 22.8299409 509.28462802 21.55788553 509.29002339 C18.11942801 509.30247341 14.68117457 509.30586576 11.24270844 509.30542648 C7.53830217 509.30707057 3.83393351 509.32012992 0.12954712 509.33161926 C-7.97831904 509.35450608 -16.08615909 509.36239474 -24.19405317 509.36744571 C-29.25798019 509.37070033 -34.32189959 509.37722164 -39.3858223 509.3844471 C-53.40806268 509.40402266 -67.43029596 509.42041965 -81.45255089 509.42332363 C-82.35061572 509.4235112 -83.24868055 509.42369877 -84.17395947 509.42389202 C-85.9945848 509.42425828 -87.81521013 509.42462198 -89.63583545 509.42498314 C-90.53959862 509.42516595 -91.44336179 509.42534876 -92.37451172 509.42553711 C-93.27937988 509.42571766 -94.18424804 509.42589821 -95.11653645 509.42608423 C-109.76151764 509.42962185 -124.4063514 509.45661415 -139.0512815 509.494035 C-154.08961567 509.53215295 -169.12787681 509.55148139 -184.16626036 509.55178314 C-192.60851695 509.55236715 -201.05059798 509.56082162 -209.4928093 509.58978081 C-216.68615128 509.6143421 -223.87925378 509.62154614 -231.0726264 509.60653328 C-234.74003474 509.59938202 -238.4069707 509.60014331 -242.07432556 509.62294388 C-246.05969058 509.64748268 -250.04398908 509.63284736 -254.02938843 509.61473083 C-255.17591837 509.6279308 -256.32244832 509.64113077 -257.50372159 509.65473074 C-269.99143007 509.52555267 -279.69909934 504.63429669 -288.796875 496.3671875 C-297.11590667 487.86410646 -300.90002528 476.01077797 -304.3125 464.875 C-304.55492432 464.08899414 -304.79734863 463.30298828 -305.04711914 462.49316406 C-308.43301352 450.85362889 -309.35189024 439.31129818 -309.31567383 427.26196289 C-309.31250796 425.06801825 -309.336101 422.87542065 -309.36132812 420.68164062 C-309.46976434 396.32345169 -309.46976434 396.32345169 -302 388 C-294.83244461 381.15100263 -288.98525367 379.40643337 -279.26953125 379.55078125 C-275.8355984 380.02258803 -273.82992757 380.92962443 -270.875 382.6875 C-268.19651013 384.23359918 -266.69234877 385.08106637 -263.58129883 384.71679688 C-262.73591553 384.44931641 -261.89053223 384.18183594 -261.01953125 383.90625 C-260.05724609 383.61129639 -259.09496094 383.31634277 -258.10351562 383.01245117 C-257.07935547 382.67834229 -256.05519531 382.3442334 -255 382 C-253.94490234 381.66782471 -252.88980469 381.33564941 -251.80273438 380.9934082 C-247.3311105 379.58189397 -242.86431176 378.15706943 -238.40820312 376.69726562 C-229.54625983 373.89245797 -222.74511437 372.44895533 -214.11328125 376.66796875 C-209.6594982 379.4752516 -206.91469949 383.12902378 -204.625 387.8125 C-202.73122665 397.47074409 -204.35377807 407.86010955 -205 417.625 C-205.0966465 419.12107489 -205.19300285 420.61716856 -205.2890625 422.11328125 C-205.52269981 425.74240986 -205.76025255 429.37126931 -206 433 C-202.95992315 434.29543103 -199.91766448 435.58565977 -196.875 436.875 C-195.59109375 437.42220703 -195.59109375 437.42220703 -194.28125 437.98046875 C-189.8995571 439.8342619 -185.54793099 441.58343133 -181 443 C-180.76152344 442.1853125 -180.52304688 441.370625 -180.27734375 440.53125 C-175.48596937 427.28537097 -167.06833874 415.62942607 -158 405 C-157.27683594 404.13632812 -156.55367187 403.27265625 -155.80859375 402.3828125 C-150.74359619 396.49512453 -145.15633931 391.48477776 -139.0625 386.6875 C-136.91019125 385.16126242 -136.91019125 385.16126242 -136 383 C-136.54382324 382.89478027 -137.08764648 382.78956055 -137.64794922 382.68115234 C-143.38465931 381.49894566 -148.69792899 379.81533748 -154.125 377.625 C-154.97320312 377.28339844 -155.82140625 376.94179688 -156.6953125 376.58984375 C-171.81017141 370.32860132 -186.81671818 362.74332928 -200 353 C-201.04929687 352.23300781 -202.09859375 351.46601563 -203.1796875 350.67578125 C-210.91211966 344.92693067 -218.02171847 338.63442418 -225 332 C-225.68320313 331.38125 -226.36640625 330.7625 -227.0703125 330.125 C-255.43555567 303.54000222 -271.6524235 262.49414916 -273.11010742 224.09985352 C-274.29988333 163.65220911 -253.99807557 106.94367332 -212 63 C-211.31808594 62.23300781 -210.63617188 61.46601562 -209.93359375 60.67578125 C-207.69407027 58.7348609 -206.83915817 58.54872891 -203.9375 58.75 C-198.6518636 59.3852999 -198.6518636 59.3852999 -194.37109375 56.8125 C-193.38634287 55.88223601 -192.40870148 54.94440091 -191.4375 54 C-186.25506757 49 -186.25506757 49 -184 49 C-184.20625 48.113125 -184.4125 47.22625 -184.625 46.3125 C-185.04146488 42.63372688 -184.66634311 41.24632088 -183 38 C-159.98186782 16.46372182 -121.98960784 5.68189376 -92 0 C-91.19062988 -0.16371094 -90.38125977 -0.32742188 -89.54736328 -0.49609375 C-61.3896699 -5.99915194 -28.10116259 -5.59620976 0 0 Z " fill="#5DC582" transform="translate(320,3)"/>
<path d="M0 0 C0.92603027 0.17160645 1.85206055 0.34321289 2.80615234 0.52001953 C57.58973791 10.75592406 108.81799451 40.88303339 141 87 C163.91896814 120.98748604 180.97562059 161.2937037 181.203125 202.8984375 C181.20882507 203.73226959 181.21452515 204.56610168 181.22039795 205.42520142 C181.22979396 207.1849849 181.23636029 208.94478554 181.24023438 210.70458984 C181.24984766 213.33334135 181.2808841 215.96127813 181.3125 218.58984375 C181.40753796 233.62582204 179.57653337 248.049996 175.3125 262.5 C175.05758789 263.37108398 174.80267578 264.24216797 174.54003906 265.13964844 C167.14637924 289.45834077 153.83154614 310.27773767 136.8125 328.9375 C136.3498877 329.44506836 135.88727539 329.95263672 135.41064453 330.47558594 C123.28029852 343.46174085 108.26444493 354.33997778 92.79882812 362.99121094 C91.05822801 363.96734553 89.33344367 364.97151786 87.609375 365.9765625 C74.19541329 373.52567548 59.61268387 379.21825355 45 384 C45.43231934 384.39678955 45.86463867 384.7935791 46.31005859 385.20239258 C59.62507287 397.45821781 71.56087697 409.45835648 81 425 C81.39074707 425.64146973 81.78149414 426.28293945 82.18408203 426.94384766 C92.47894516 444.20275584 104.22922167 470.24739886 99.34765625 490.73828125 C96.65757522 498.34670784 92.09874994 503.60069919 85 507.4375 C78.84926835 509.88079582 71.46319099 510.21137805 65 509 C62.55078125 506.58984375 62.55078125 506.58984375 61 504 C61 503.34 61 502.68 61 502 C54.4 502 47.8 502 41 502 C40.34 503.65 39.68 505.3 39 507 C36.4560838 509.5439162 35.56755741 509.25255035 32.03974342 509.26006222 C30.98420946 509.26712781 29.92867549 509.2741934 28.84115565 509.2814731 C27.67231849 509.27905802 26.50348132 509.27664293 25.29922485 509.27415466 C24.06458288 509.27939134 22.8299409 509.28462802 21.55788553 509.29002339 C18.11942801 509.30247341 14.68117457 509.30586576 11.24270844 509.30542648 C7.53830217 509.30707057 3.83393351 509.32012992 0.12954712 509.33161926 C-7.97831904 509.35450608 -16.08615909 509.36239474 -24.19405317 509.36744571 C-29.25798019 509.37070033 -34.32189959 509.37722164 -39.3858223 509.3844471 C-53.40806268 509.40402266 -67.43029596 509.42041965 -81.45255089 509.42332363 C-82.35061572 509.4235112 -83.24868055 509.42369877 -84.17395947 509.42389202 C-85.9945848 509.42425828 -87.81521013 509.42462198 -89.63583545 509.42498314 C-90.53959862 509.42516595 -91.44336179 509.42534876 -92.37451172 509.42553711 C-93.27937988 509.42571766 -94.18424804 509.42589821 -95.11653645 509.42608423 C-109.76151764 509.42962185 -124.4063514 509.45661415 -139.0512815 509.494035 C-154.08961567 509.53215295 -169.12787681 509.55148139 -184.16626036 509.55178314 C-192.60851695 509.55236715 -201.05059798 509.56082162 -209.4928093 509.58978081 C-216.68615128 509.6143421 -223.87925378 509.62154614 -231.0726264 509.60653328 C-234.74003474 509.59938202 -238.4069707 509.60014331 -242.07432556 509.62294388 C-246.05969058 509.64748268 -250.04398908 509.63284736 -254.02938843 509.61473083 C-255.17591837 509.6279308 -256.32244832 509.64113077 -257.50372159 509.65473074 C-269.99143007 509.52555267 -279.69909934 504.63429669 -288.796875 496.3671875 C-297.11590667 487.86410646 -300.90002528 476.01077797 -304.3125 464.875 C-304.55492432 464.08899414 -304.79734863 463.30298828 -305.04711914 462.49316406 C-308.43301352 450.85362889 -309.35189024 439.31129818 -309.31567383 427.26196289 C-309.31250796 425.06801825 -309.336101 422.87542065 -309.36132812 420.68164062 C-309.46976434 396.32345169 -309.46976434 396.32345169 -302 388 C-294.83244461 381.15100263 -288.98525367 379.40643337 -279.26953125 379.55078125 C-275.8355984 380.02258803 -273.82992757 380.92962443 -270.875 382.6875 C-268.19651013 384.23359918 -266.69234877 385.08106637 -263.58129883 384.71679688 C-262.73591553 384.44931641 -261.89053223 384.18183594 -261.01953125 383.90625 C-260.05724609 383.61129639 -259.09496094 383.31634277 -258.10351562 383.01245117 C-257.07935547 382.67834229 -256.05519531 382.3442334 -255 382 C-253.94490234 381.66782471 -252.88980469 381.33564941 -251.80273438 380.9934082 C-247.3311105 379.58189397 -242.86431176 378.15706943 -238.40820312 376.69726562 C-229.54625983 373.89245797 -222.74511437 372.44895533 -214.11328125 376.66796875 C-209.6594982 379.4752516 -206.91469949 383.12902378 -204.625 387.8125 C-202.73122665 397.47074409 -204.35377807 407.86010955 -205 417.625 C-205.0966465 419.12107489 -205.19300285 420.61716856 -205.2890625 422.11328125 C-205.52269981 425.74240986 -205.76025255 429.37126931 -206 433 C-202.95992315 434.29543103 -199.91766448 435.58565977 -196.875 436.875 C-195.59109375 437.42220703 -195.59109375 437.42220703 -194.28125 437.98046875 C-189.8995571 439.8342619 -185.54793099 441.58343133 -181 443 C-180.76152344 442.1853125 -180.52304688 441.370625 -180.27734375 440.53125 C-175.48596937 427.28537097 -167.06833874 415.62942607 -158 405 C-157.27683594 404.13632812 -156.55367187 403.27265625 -155.80859375 402.3828125 C-150.74359619 396.49512453 -145.15633931 391.48477776 -139.0625 386.6875 C-136.91019125 385.16126242 -136.91019125 385.16126242 -136 383 C-136.54382324 382.89478027 -137.08764648 382.78956055 -137.64794922 382.68115234 C-143.38465931 381.49894566 -148.69792899 379.81533748 -154.125 377.625 C-154.97320312 377.28339844 -155.82140625 376.94179688 -156.6953125 376.58984375 C-171.81017141 370.32860132 -186.81671818 362.74332928 -200 353 C-201.04929687 352.23300781 -202.09859375 351.46601563 -203.1796875 350.67578125 C-210.91211966 344.92693067 -218.02171847 338.63442418 -225 332 C-225.68320313 331.38125 -226.36640625 330.7625 -227.0703125 330.125 C-255.43555567 303.54000222 -271.6524235 262.49414916 -273.11010742 224.09985352 C-274.29988333 163.65220911 -253.99807557 106.94367332 -212 63 C-211.31808594 62.23816406 -210.63617188 61.47632812 -209.93359375 60.69140625 C-207.74216363 58.77445828 -206.80611546 58.45578242 -203.9375 58.5 C-200 59 -200 59 -198 60.5625 C-196.53527523 64.13276662 -196.35861932 66.15171591 -197 70 C-198.98753708 72.97802585 -201.52621153 75.42331565 -204 78 C-226.10886628 103.03455085 -241.79846693 131.9481579 -250.625 164.1875 C-250.81932617 164.88045166 -251.01365234 165.57340332 -251.21386719 166.28735352 C-255.10024493 181.10540582 -256.52048286 195.99961196 -256.44604492 211.27905273 C-256.43751265 213.93356577 -256.46649751 216.58593005 -256.49804688 219.24023438 C-256.56550493 235.38615654 -254.12861405 251.06141923 -248.3125 266.1875 C-247.96928711 267.09838379 -247.62607422 268.00926758 -247.27246094 268.94775391 C-231.09338647 310.71081198 -196.40620046 341.14326285 -156 359 C-144.91465799 363.6201339 -133.6008665 367.87212132 -122 371 C-121.30664551 371.19158691 -120.61329102 371.38317383 -119.89892578 371.58056641 C-95.48670318 378.22620222 -71.32402138 380.37302847 -46.125 380.4375 C-45.10676147 380.4436734 -44.08852295 380.4498468 -43.03942871 380.45620728 C-27.82111144 380.5155508 -13.04716941 379.24319576 2 377 C3.22041992 376.82267334 4.44083984 376.64534668 5.69824219 376.46264648 C47.39286669 369.93278587 88.26083523 352.18622034 119 323 C119.5067627 322.52578613 120.01352539 322.05157227 120.53564453 321.56298828 C137.42150951 305.68205305 149.1055561 286.74604486 157 265 C157.37898438 264.00742187 157.75796875 263.01484375 158.1484375 261.9921875 C167.58886379 235.9422894 167.51362212 204.82040965 162 178 C161.82839355 177.15276367 161.65678711 176.30552734 161.47998047 175.43261719 C154.12333515 140.04971717 138.73153353 108.28215006 115 81 C114.25000732 80.13036621 114.25000732 80.13036621 113.48486328 79.24316406 C102.50833379 66.61273613 90.05862018 56.06954463 76 47 C75.4323291 46.63310059 74.8646582 46.26620117 74.27978516 45.88818359 C46.8221158 28.31679852 16.17523811 18.32204691 -16 14 C-17.17308716 13.83745728 -17.17308716 13.83745728 -18.36987305 13.67163086 C-70.01865062 7.48968818 -124.41209946 18.75749883 -167.88720703 47.49536133 C-172.05825404 50.16958264 -174.87016446 51.75686098 -180 51 C-182.84821386 49.53740369 -183.76625002 48.63446424 -184.875 45.625 C-185.02544473 42.46566071 -184.40754083 40.82377019 -183 38 C-159.98186782 16.46372182 -121.98960784 5.68189376 -92 0 C-91.19062988 -0.16371094 -90.38125977 -0.32742188 -89.54736328 -0.49609375 C-61.3896699 -5.99915194 -28.10116259 -5.59620976 0 0 Z " fill="#000100" transform="translate(320,3)"/>
<path d="M0 0 C2.8698887 3.47918815 4.74135059 7.33955942 6.6875 11.375 C9.39870448 16.86875644 12.15803167 22.3268346 15.125 27.6875 C16.02605469 29.33298828 16.02605469 29.33298828 16.9453125 31.01171875 C20.97058732 36.86596825 26.1059096 40.34288836 33 42 C39.30090269 43.0368574 43.89082561 41.56123515 49.54296875 38.77734375 C56.63811421 33.64492533 60.37103395 26.16014916 64.375 18.5625 C64.92027344 17.54478516 65.46554687 16.52707031 66.02734375 15.47851562 C67.35938067 12.9897098 68.68332432 10.49695629 70 8 C72 9 72 9 72.75854492 10.69555664 C72.99677979 11.42637451 73.23501465 12.15719238 73.48046875 12.91015625 C73.75383057 13.72782471 74.02719238 14.54549316 74.30883789 15.38793945 C74.59879639 16.27054443 74.88875488 17.15314941 75.1875 18.0625 C81.43765461 39.33741995 81.43765461 39.33741995 96.25 54.4375 C102.53226844 56.88705677 108.77899029 56.94106394 115.1875 54.875 C125.16751969 50.44611576 128.72339372 42.49533622 133 33 C133.43828125 32.03964844 133.8765625 31.07929688 134.328125 30.08984375 C135.23792678 28.06841797 136.12255236 26.03567853 137 24 C140.55244323 27.13954961 142.55795855 30.55486295 144.5 34.8125 C144.95173584 35.79512817 144.95173584 35.79512817 145.41259766 36.79760742 C154.62401887 57.56170673 157.53292567 87.08706061 150.32421875 108.7890625 C142.56525705 127.60282804 130.47634151 143.15960266 113 154 C111.98679687 154.63421875 110.97359375 155.2684375 109.9296875 155.921875 C86.07727173 170.20011924 60.24452752 176.75525571 33 181 C31.93088379 181.18103271 30.86176758 181.36206543 29.76025391 181.54858398 C25.05668594 182.11324423 20.42852717 182.18083437 15.6953125 182.203125 C14.70707489 182.21018463 13.71883728 182.21724426 12.70065308 182.22451782 C-38.82936188 182.50876773 -92.54863547 176.38622726 -131.40625 138.6640625 C-148.76643052 120.29318654 -153.69609964 98.96614965 -153.31640625 74.45703125 C-152.66901872 56.20287003 -147.1699712 39.72445233 -138 24 C-137.34 24 -136.68 24 -136 24 C-135.22076172 25.80984375 -135.22076172 25.80984375 -134.42578125 27.65625 C-133.72168491 29.2709776 -133.01723909 30.88555283 -132.3125 32.5 C-131.97283203 33.29148438 -131.63316406 34.08296875 -131.28320312 34.8984375 C-126.94246221 45.37524775 -126.94246221 45.37524775 -118.9375 52.9375 C-117.96103516 53.50791016 -117.96103516 53.50791016 -116.96484375 54.08984375 C-111.15164236 56.78263883 -103.70035398 57.29481706 -97.64453125 55.17578125 C-95.70106893 54.19493441 -93.85745335 53.1335016 -92 52 C-91.30777344 51.72929687 -90.61554688 51.45859375 -89.90234375 51.1796875 C-87.28248959 49.55505515 -86.9804214 47.87814694 -86 45 C-85.15353696 43.41253489 -84.29845855 41.82965044 -83.4375 40.25 C-78.21039106 29.97736903 -74.77439126 18.86681787 -71 8 C-70.34 8 -69.68 8 -69 8 C-68.54729736 8.89138672 -68.54729736 8.89138672 -68.08544922 9.80078125 C-66.68975112 12.53790325 -65.28247445 15.26891616 -63.875 18 C-63.400625 18.93457031 -62.92625 19.86914062 -62.4375 20.83203125 C-57.94580801 29.51192252 -53.91904538 37.06927686 -44.71484375 41.15234375 C-38.52802086 43.0840568 -32.54999136 43.02997724 -26.625 40.3125 C-20.26360246 36.90761101 -16.65782836 31.25953478 -13.1875 25.1875 C-12.54772217 24.08547241 -12.54772217 24.08547241 -11.89501953 22.96118164 C-7.59983553 15.47216334 -3.74623226 7.77500159 0 0 Z " fill="#FDD2BC" transform="translate(274,146)"/>
<path d="M0 0 C3.5010726 0.01069549 7.00162864 0.00005453 10.50268555 -0.01269531 C28.30857102 -0.02429024 46.17537558 0.61153148 63.70385742 4.01074219 C64.59645264 4.18065674 65.48904785 4.35057129 66.40869141 4.52563477 C88.07922671 8.80742776 110.7102248 14.90092131 128.70385742 28.26074219 C129.5365918 28.87433594 130.36932617 29.48792969 131.22729492 30.12011719 C153.2702171 47.07621117 167.10096303 70.76766967 171.00048828 98.35961914 C171.87964225 105.95986992 171.88756072 113.55548211 171.89135742 121.19824219 C171.90360352 122.49181641 171.91584961 123.78539062 171.9284668 125.11816406 C171.96739373 150.74506252 161.29513045 171.60605215 143.57885742 189.76074219 C137.18480577 196.13064432 130.31274333 201.4249988 122.70385742 206.26074219 C122.09735352 206.64713867 121.49084961 207.03353516 120.8659668 207.43164062 C109.77535415 214.35891858 98.00776173 218.95029381 85.70385742 223.26074219 C84.9376709 223.54046875 84.17148437 223.82019531 83.38208008 224.10839844 C57.84798317 233.40373026 30.89826899 235.49448239 3.95385742 235.51074219 C2.94941589 235.51141693 1.94497437 235.51209167 0.91009521 235.51278687 C-14.04489129 235.49682939 -28.56520527 235.06676537 -43.29614258 232.26074219 C-44.23925293 232.08913574 -45.18236328 231.9175293 -46.15405273 231.74072266 C-84.77691245 224.56982834 -124.10219058 208.28040719 -148.02270508 175.70605469 C-165.31957667 150.38958994 -167.30352319 121.1403414 -161.79223633 91.67089844 C-158.35632787 74.97833528 -151.06869573 59.47973394 -140.29614258 46.26074219 C-139.28293945 45.00197266 -139.28293945 45.00197266 -138.24926758 43.71777344 C-114.64124946 15.9309638 -77.02134642 6.48304662 -42.29614258 2.26074219 C-40.36363647 2.00478271 -40.36363647 2.00478271 -38.39208984 1.74365234 C-25.59478515 0.14597515 -12.88549963 -0.04667033 0 0 Z M3.70385742 38.26074219 C3.24237305 39.21851563 2.78088867 40.17628906 2.30541992 41.16308594 C-1.38447695 48.7320313 -5.25524199 56.16475428 -9.48364258 63.44824219 C-9.88695801 64.15392334 -10.29027344 64.85960449 -10.70581055 65.58666992 C-14.75820794 72.46449342 -19.53782097 77.78019038 -27.29614258 80.26074219 C-34.16545141 81.371349 -39.98527477 80.42372313 -46.03051758 76.96386719 C-55.3545037 69.95480176 -60.11826087 56.43477057 -65.29614258 46.26074219 C-65.95614258 46.26074219 -66.61614258 46.26074219 -67.29614258 46.26074219 C-67.47153564 46.7828125 -67.64692871 47.30488281 -67.82763672 47.84277344 C-70.95489672 57.09792321 -74.14085102 66.30048527 -78.04614258 75.26074219 C-78.32723877 75.91171875 -78.60833496 76.56269531 -78.89794922 77.23339844 C-80.38730288 80.57480041 -82.0743231 83.36969997 -84.29614258 86.26074219 C-84.29614258 86.92074219 -84.29614258 87.58074219 -84.29614258 88.26074219 C-84.88266602 88.54691406 -85.46918945 88.83308594 -86.07348633 89.12792969 C-88.24633383 90.19965937 -88.24633383 90.19965937 -90.05004883 91.33105469 C-96.32640292 94.99113159 -102.51288144 95.33100716 -109.56567383 93.75292969 C-116.12466632 91.57077922 -120.66622059 87.96382343 -123.78051758 81.79199219 C-124.5511158 80.12192437 -125.30608518 78.44456616 -126.04614258 76.76074219 C-126.43157227 75.91898438 -126.81700195 75.07722656 -127.21411133 74.20996094 C-129.00914455 70.26585681 -130.73794911 66.3054146 -132.29614258 62.26074219 C-132.95614258 62.26074219 -133.61614258 62.26074219 -134.29614258 62.26074219 C-138.7793688 69.90336356 -142.68858295 77.41084925 -145.17114258 85.94824219 C-145.45671021 86.92458618 -145.45671021 86.92458618 -145.74804688 87.9206543 C-152.16230483 111.38936044 -152.14349267 138.21987447 -140.33520508 159.95214844 C-121.07862227 191.19798299 -87.15012472 206.90860765 -52.56958008 215.25976562 C1.06195589 227.47769991 65.95496386 223.66336876 113.70385742 194.26074219 C134.24830666 181.29153996 149.57132877 164.18896492 155.81713867 140.25683594 C157.16352988 133.93681071 157.00242931 127.569649 156.95385742 121.13574219 C156.94261841 119.19513916 156.94261841 119.19513916 156.93115234 117.21533203 C156.70548074 97.19737871 152.84531898 80.59182779 142.70385742 63.26074219 C141.71385742 63.26074219 140.72385742 63.26074219 139.70385742 63.26074219 C139.49817139 63.79441406 139.29248535 64.32808594 139.08056641 64.87792969 C130.57161201 86.69406783 130.57161201 86.69406783 121.51635742 92.19824219 C115.10383908 94.62074912 108.63208823 95.57962721 102.00463867 93.35449219 C92.57308322 88.95591924 89.0354152 82.6243718 85.20385742 73.32324219 C84.81657471 72.40260986 84.42929199 71.48197754 84.03027344 70.53344727 C80.86141213 62.89355284 78.12149598 55.1697005 75.70385742 47.26074219 C74.71385742 47.26074219 73.72385742 47.26074219 72.70385742 47.26074219 C72.40729248 47.855 72.11072754 48.44925781 71.80517578 49.06152344 C70.42937173 51.80088323 69.03554105 54.53069373 67.64135742 57.26074219 C67.17536133 58.1953125 66.70936523 59.12988281 66.22924805 60.09277344 C61.89822934 68.51910916 57.20778671 76.15349995 48.02026367 79.63574219 C41.18674215 81.4795254 35.68879125 80.25512048 29.16088867 77.81933594 C22.05979428 73.31482614 18.41007703 65.60724819 14.57885742 58.38574219 C14.06709961 57.4434375 13.5553418 56.50113281 13.02807617 55.53027344 C9.98736644 49.87877437 7.20759659 44.16985924 4.70385742 38.26074219 C4.37385742 38.26074219 4.04385742 38.26074219 3.70385742 38.26074219 Z " fill="#030302" transform="translate(270.296142578125,107.7392578125)"/>
<path d="M0 0 C1.33708008 0.18755859 1.33708008 0.18755859 2.70117188 0.37890625 C3.63896484 0.51683594 4.57675781 0.65476562 5.54296875 0.796875 C6.40728516 0.91933594 7.27160156 1.04179687 8.16210938 1.16796875 C9.53592773 1.36326172 9.53592773 1.36326172 10.9375 1.5625 C11.96673584 1.70792236 12.99597168 1.85334473 14.05639648 2.00317383 C16.8357547 2.4144723 19.60401239 2.85485886 22.37524414 3.31518555 C35.49897194 5.43103933 48.26454478 5.99116667 61.54296875 5.859375 C62.54827637 5.85377563 63.55358398 5.84817627 64.58935547 5.84240723 C84.56972068 5.73055906 103.99408871 4.90756463 123.60742188 0.78027344 C129.87398747 -0.5040151 134.1765707 -1.08658264 139.80859375 2.515625 C140.876094 3.34642157 141.93306022 4.19088721 142.98046875 5.046875 C143.54475586 5.49611328 144.10904297 5.94535156 144.69042969 6.40820312 C168.6273663 25.64976551 185.8084005 49.95124548 193.48046875 79.796875 C193.70379883 80.66159424 193.92712891 81.52631348 194.15722656 82.41723633 C196.87490735 93.46236183 196.87490735 93.46236183 193.98046875 98.734375 C191.26549507 102.1280921 189.40648852 104.25010517 185.0390625 105.0234375 C183.61787109 105.09691406 183.61787109 105.09691406 182.16796875 105.171875 C179.04683047 105.34974177 176.71315699 105.55264559 173.73046875 106.546875 C173.40046875 108.526875 173.07046875 110.506875 172.73046875 112.546875 C165.47046875 112.546875 158.21046875 112.546875 150.73046875 112.546875 C150.07046875 110.896875 149.41046875 109.246875 148.73046875 107.546875 C145.44299459 105.35522556 144.2455205 105.26008114 140.40625 105.1328125 C139.37822266 105.09414063 138.35019531 105.05546875 137.29101562 105.015625 C136.21916016 104.9846875 135.14730469 104.95375 134.04296875 104.921875 C132.95951172 104.88320313 131.87605469 104.84453125 130.75976562 104.8046875 C128.08350408 104.71036991 125.40725032 104.62477495 122.73046875 104.546875 C122.43914062 103.38671875 122.1478125 102.2265625 121.84765625 101.03125 C116.92005718 81.99298478 109.31617281 65.96102007 91.73046875 55.546875 C78.26013804 48.93815205 64.51161912 46.0042493 49.85546875 50.171875 C31.67015666 56.60736769 20.27093314 69.68186476 12.08984375 86.6875 C10.64283667 90.28100456 9.93769372 94.00429115 9.14550781 97.78808594 C8.74625092 99.68491119 8.74625092 99.68491119 8.33892822 101.62005615 C8.03774078 103.06883148 8.03774078 103.06883148 7.73046875 104.546875 C-0.64079728 104.63970546 -9.01184694 104.71070551 -17.38350105 104.75412369 C-21.27115228 104.7749662 -25.1584504 104.80322181 -29.04589844 104.84863281 C-32.8001132 104.89221119 -36.55398911 104.91603719 -40.30843735 104.92638397 C-41.73815111 104.93375398 -43.16784708 104.94814614 -44.59741592 104.96979523 C-46.60528606 104.9989826 -48.61349982 105.0005102 -50.62158203 105.00097656 C-51.76297638 105.00985901 -52.90437073 105.01874146 -54.08035278 105.02789307 C-58.53882812 104.35542923 -61.84700454 102.35736354 -64.64453125 98.796875 C-66.33169879 92.72307185 -65.11090703 86.47231066 -63.64453125 80.484375 C-63.46631836 79.74977051 -63.28810547 79.01516602 -63.10449219 78.25830078 C-54.94214933 46.15446665 -33.990742 18.39314802 -6.26953125 0.546875 C-3.79192701 -0.69192712 -2.72054074 -0.39126625 0 0 Z " fill="#5DC682" transform="translate(209.26953125,392.453125)"/>
<path d="M0 0 C4.48967856 2.60632219 7.67033725 5.59927498 11.0625 9.5 C31.8835225 32.79945945 60.56021736 53.95649721 91.34765625 61.4296875 C93 62 93 62 94 64 C93.40845362 66.46428115 92.75844015 68.87797892 92.0625 71.3125 C89.52515076 80.75583341 89.34114222 89.35408013 91 99 C81.50710084 99.09295656 72.01435998 99.16389446 62.52110386 99.20724869 C58.11229358 99.22806369 53.70379624 99.25626894 49.29516602 99.30175781 C45.03520091 99.3454343 40.77553555 99.36918283 36.51536369 99.37950897 C34.89555078 99.38686144 33.27575302 99.40121867 31.6560688 99.42292023 C15.30141157 99.63320134 15.30141157 99.63320134 8 95 C7.36103287 94.59581848 6.72206573 94.19163696 6.06373596 93.77520752 C-0.2741161 89.458461 -2.98255599 81.75937333 -6 75 C-6.52980469 73.81535156 -7.05960938 72.63070312 -7.60546875 71.41015625 C-9.66108989 66.38338522 -10.84471028 61.29615961 -12 56 C-12.20882813 55.0925 -12.41765625 54.185 -12.6328125 53.25 C-14.13138084 45.48277253 -14.20841937 37.76644987 -14.25 29.875 C-14.25926514 28.77849121 -14.26853027 27.68198242 -14.27807617 26.55224609 C-14.21253315 9.45708304 -14.21253315 9.45708304 -10 2.875 C-6.69161378 -0.22661209 -4.48851112 -0.43158761 0 0 Z " fill="#3BB566" transform="translate(40,398)"/>
<path d="M0 0 C0.89138672 0.12503906 1.78277344 0.25007813 2.70117188 0.37890625 C3.63896484 0.51683594 4.57675781 0.65476562 5.54296875 0.796875 C6.40728516 0.91933594 7.27160156 1.04179687 8.16210938 1.16796875 C9.53592773 1.36326172 9.53592773 1.36326172 10.9375 1.5625 C11.96673584 1.70792236 12.99597168 1.85334473 14.05639648 2.00317383 C16.8357547 2.4144723 19.60401239 2.85485886 22.37524414 3.31518555 C35.49897194 5.43103933 48.26454478 5.99116667 61.54296875 5.859375 C62.54827637 5.85377563 63.55358398 5.84817627 64.58935547 5.84240723 C84.56972068 5.73055906 103.99408871 4.90756463 123.60742188 0.78027344 C129.96642457 -0.52295943 134.22816152 -1.08346259 139.9140625 2.62109375 C141.00830586 3.48008721 142.09273559 4.35170181 143.16796875 5.234375 C143.73346436 5.68482178 144.29895996 6.13526855 144.8815918 6.59936523 C146.50887153 7.90235721 148.12178194 9.22103423 149.73046875 10.546875 C150.52195312 11.19398438 151.3134375 11.84109375 152.12890625 12.5078125 C153.69416737 13.81752078 155.21871616 15.17575056 156.73046875 16.546875 C156.73046875 16.876875 156.73046875 17.206875 156.73046875 17.546875 C140.16403926 21.57153338 123.62312328 25.19249806 106.73046875 27.546875 C105.89322266 27.66546875 105.05597656 27.7840625 104.19335938 27.90625 C75.89866663 31.69995182 45.88975209 30.87286696 17.73046875 26.546875 C16.91690918 26.4240918 16.10334961 26.30130859 15.26513672 26.17480469 C10.39515981 25.4204622 5.56184299 24.51741348 0.73046875 23.546875 C-0.07422852 23.3907373 -0.87892578 23.23459961 -1.70800781 23.07373047 C-4.27237327 22.57518507 -6.83375504 22.06351851 -9.39453125 21.546875 C-10.17699219 21.3929126 -10.95945313 21.2389502 -11.765625 21.08032227 C-16.58888532 20.07599701 -20.80294375 18.63207235 -25.26953125 16.546875 C-21.66514596 11.85774138 -17.94786558 8.56470048 -13.08203125 5.234375 C-12.45361328 4.79287109 -11.82519531 4.35136719 -11.17773438 3.89648438 C-4.64251696 -0.66768351 -4.64251696 -0.66768351 0 0 Z " fill="#3BB566" transform="translate(209.26953125,392.453125)"/>
<path d="M0 0 C1.07314453 -0.02449219 2.14628906 -0.04898438 3.25195312 -0.07421875 C11.40814965 -0.10382382 19.78714843 0.751794 26.08276367 6.41845703 C32.22390585 13.10362825 32.24651489 19.3628071 32.078125 28.0703125 C31.67028486 37.30269381 27.70314703 43.59914761 21.3515625 50.16796875 C14.11094597 56.46173542 6.67519982 58.22089561 -2.8125 57.8671875 C-11.27134591 56.6336058 -18.69118364 51.84560042 -23.8125 45.0625 C-29.56825195 36.60987057 -31.28284658 27.49751323 -30.1875 17.375 C-28.31345188 11.29064646 -25.47334288 6.81535967 -20.12890625 3.3125 C-13.43983404 0.08236452 -7.312545 0.00862837 0 0 Z " fill="#030202" transform="translate(273.1875,219.625)"/>
<path d="M0 0 C9.4606605 7.06682671 15.94606625 16.87609934 19.203125 28.23828125 C19.203125 30.54828125 19.203125 32.85828125 19.203125 35.23828125 C-8.516875 35.23828125 -36.236875 35.23828125 -64.796875 35.23828125 C-62.78347676 21.14449357 -57.22208651 10.26405948 -46.265625 0.99609375 C-31.79234582 -9.30924743 -14.9543391 -9.41956275 0 0 Z " fill="#F3E871" transform="translate(296.796875,461.76171875)"/>
<path d="M0 0 C2.1953125 1.46875 2.1953125 1.46875 4 4 C4.53845301 7.01352691 4.46762957 9.94809929 4.375 13 C4.37371094 13.80695313 4.37242187 14.61390625 4.37109375 15.4453125 C4.30972574 19.57742541 4.06124059 22.3401414 2 26 C2.70125 26.0825 3.4025 26.165 4.125 26.25 C11.29672275 28.1208842 16.43937488 33.71487224 20.1484375 39.921875 C21.9994166 44.43894326 21.71008982 49.58484421 20.34765625 54.21875 C18.02387298 59.40487576 14.6626025 62.82905504 10 66 C9.41089844 66.41507812 8.82179687 66.83015625 8.21484375 67.2578125 C0.58366026 71.59681544 -9.5213748 71.10773133 -18 70 C-21.81239805 68.85037341 -24.77824015 67.3137482 -28 65 C-29.3921875 64.13375 -29.3921875 64.13375 -30.8125 63.25 C-35.14013481 58.79871848 -38.25665416 53.75103201 -38.5625 47.4375 C-38.09317944 40.51803024 -35.17811466 35.80500133 -30.125 31.1875 C-25.39653994 27.36467502 -21.41674379 25.03884118 -15.30859375 24.4296875 C-14.50091553 24.34702637 -13.6932373 24.26436523 -12.86108398 24.17919922 C-11.93984741 24.09049561 -11.93984741 24.09049561 -11 24 C-11.02094727 23.41508789 -11.04189453 22.83017578 -11.06347656 22.22753906 C-11.14680115 19.56853535 -11.19870897 16.90980645 -11.25 14.25 C-11.28351563 13.32960937 -11.31703125 12.40921875 -11.3515625 11.4609375 C-11.45021677 4.65379304 -11.45021677 4.65379304 -9.203125 1.390625 C-5.96042615 -0.65618491 -3.7503523 -0.53576461 0 0 Z " fill="#EDA1AB" transform="translate(203,214)"/>
<path d="M0 0 C2.171875 1.38671875 2.171875 1.38671875 4 4 C4.4953841 7.42855941 4.37580781 10.79512402 4.25 14.25 C4.23195313 15.18585938 4.21390625 16.12171875 4.1953125 17.0859375 C4.14825673 19.39167015 4.08253713 21.69530945 4 24 C5.22460938 24.12890625 6.44921875 24.2578125 7.7109375 24.390625 C15.31446703 25.3481809 21.60026483 28.60026483 27 34 C30.84100482 39.05395371 31.64791138 42.95442566 31.37890625 49.2890625 C30.44576033 55.96538486 27.25087136 60.61175279 21.94921875 64.6796875 C21.30597656 65.11539063 20.66273438 65.55109375 20 66 C19.38769531 66.41507812 18.77539062 66.83015625 18.14453125 67.2578125 C9.91030415 71.81291686 -2.06726006 71.40617819 -11 69 C-17.74895698 66.24264404 -23.84140098 60.54004398 -27 54 C-27.91351588 48.05453416 -28.0487704 41.8978482 -25 36.5625 C-21.41302897 31.75269794 -16.79596052 27.81548849 -11 26.125 C-10.34 26.08375 -9.68 26.0425 -9 26 C-9.33 25.01 -9.66 24.02 -10 23 C-10.27674922 19.67137495 -10.27723014 16.33888004 -10.3125 13 C-10.34150391 12.08476562 -10.37050781 11.16953125 -10.40039062 10.2265625 C-10.40876953 9.34742188 -10.41714844 8.46828125 -10.42578125 7.5625 C-10.44036377 6.75941406 -10.45494629 5.95632812 -10.4699707 5.12890625 C-10 3 -10 3 -8.16088867 1.2421875 C-5.20482464 -0.45710679 -3.3571042 -0.4895777 0 0 Z " fill="#ECA1AB" transform="translate(352,214)"/>
<path d="M0 0 C-1.72085472 12.60971129 -7.25921711 23.88880558 -13.0625 35.0625 C-13.67931641 36.25830688 -13.67931641 36.25830688 -14.30859375 37.47827148 C-20.22993605 48.61496803 -20.22993605 48.61496803 -25 51 C-27.8125 51.375 -27.8125 51.375 -31 51 C-35.4357383 47.26502166 -38.07326191 42.95031665 -40.8125 37.9375 C-41.23901855 37.16398193 -41.66553711 36.39046387 -42.10498047 35.59350586 C-54 13.44240497 -54 13.44240497 -54 5 C-36.11621142 1.20570256 -18.27528539 -0.43113386 0 0 Z " fill="#FCFCFC" transform="translate(265,123)"/>
<path d="M0 0 C18.44233284 -0.91073249 36.85251485 1.9095678 55 5 C51.55904059 19.26564421 43.56347709 42.52416139 31 51 C28 51.5625 28 51.5625 25 51 C20.81428452 47.39676273 18.23231038 43.46319142 15.625 38.6875 C15.23997314 37.98963379 14.85494629 37.29176758 14.45825195 36.57275391 C8.09076308 24.82771861 3.26002289 12.95909719 0 0 Z " fill="#FCFCFC" transform="translate(283,123)"/>
<path d="M0 0 C-1.78479471 15.70619345 -7.86986544 42.62465978 -19.9921875 53.84375 C-23.15853694 55.66717302 -25.42705895 55.50146541 -29 55 C-34.26724341 50.92021888 -36.26723364 45.61058572 -38.75 39.5625 C-39.14832031 38.63373047 -39.54664063 37.70496094 -39.95703125 36.74804688 C-43.92769157 27.29249137 -43.92769157 27.29249137 -44 23 C-37.77538812 13.14960409 -11.78223562 0 0 0 Z " fill="#FBFBFB" transform="translate(193,133)"/>
<path d="M0 0 C16.39302442 4.13766241 31.34634702 11.75230847 44 23 C42.37828622 29.72335505 39.85519993 36.03976461 37.125 42.375 C36.79757812 43.15987793 36.47015625 43.94475586 36.1328125 44.75341797 C34.13001232 49.29981349 32.38617725 52.33348272 28 55 C24.5 55.5625 24.5 55.5625 21 55 C16.03602747 51.04309538 13.98717915 46.3375251 11.625 40.625 C11.0518103 39.26169556 11.0518103 39.26169556 10.46704102 37.87084961 C7.60304574 30.87731739 5.1639518 23.7825154 2.9375 16.5625 C2.63859863 15.59844238 2.33969727 14.63438477 2.03173828 13.64111328 C0.65355519 8.9809927 -0.38568633 4.91544915 0 0 Z " fill="#FCFCFC" transform="translate(356,133)"/>
<path d="M0 0 C1.40572266 0.00193359 1.40572266 0.00193359 2.83984375 0.00390625 C13.26195447 0.13695447 13.26195447 0.13695447 16.5 3.375 C17.26391015 10.50065373 16.80184027 16.49119266 12.5 22.375 C8.0198601 26.63659649 3.99446907 27.91704532 -2.08203125 27.84765625 C-6.70094009 26.94476777 -9.560382 23.88736048 -12.5 20.375 C-15.23064535 15.76703597 -15.87047533 11.7259328 -16.09375 6.48828125 C-15.5 4.375 -15.5 4.375 -13.625 2.12890625 C-9.09149733 -0.41552213 -5.10765607 -0.13348757 0 0 Z " fill="#4C545E" transform="translate(273.5,234.625)"/>
<path d="M0 0 C2 2 2 2 2.23046875 4.19067383 C2.1212592 11.06280895 1.68153457 17.84912947 1 24.6875 C0.85691406 26.18700195 0.85691406 26.18700195 0.7109375 27.71679688 C0.47857196 30.14501674 0.24154365 32.57267899 0 35 C-7.88781443 30.25510583 -15.02722908 25.00377553 -22 19 C-22.96164063 18.17371094 -23.92328125 17.34742188 -24.9140625 16.49609375 C-30.12585729 11.92292733 -30.12585729 11.92292733 -32 10 C-32 9.34 -32 8.68 -32 8 C-27.98465585 6.64973111 -23.9619486 5.32286151 -19.9375 4 C-18.80376953 3.6184375 -17.67003906 3.236875 -16.50195312 2.84375 C-5.53569504 -0.73706897 -5.53569504 -0.73706897 0 0 Z " fill="#F0E56F" transform="translate(98,393)"/>
<path d="M0 0 C2.46788657 1.66438862 3.78774669 2.96536301 4.39697266 5.93505859 C4.57633797 8.28231476 4.59463824 10.5838468 4.5625 12.9375 C4.58634766 13.73607422 4.61019531 14.53464844 4.63476562 15.35742188 C4.62401307 19.68353454 4.3720977 21.50638817 1.69140625 25.0625 C-1 27 -1 27 -4.625 27.0625 C-8.46173978 25.85463748 -9.16355599 25.48215942 -11 22 C-11.4611039 18.99265327 -11.46418843 16.03762826 -11.4375 13 C-11.45748047 12.19304687 -11.47746094 11.38609375 -11.49804688 10.5546875 C-11.49488266 6.71965499 -11.46521931 4.65110607 -9.19140625 1.46875 C-5.97077196 -0.68982129 -3.78532019 -0.54076003 0 0 Z " fill="#060404" transform="translate(203,214)"/>
<path d="M0 0 C3.89643482 0.7156717 5.3578163 1.65530255 8.0625 4.5625 C8.80701403 7.55604323 8.7614904 10.42939831 8.6875 13.5 C8.70683594 14.29857422 8.72617188 15.09714844 8.74609375 15.91992188 C8.71031366 20.23857828 8.42683103 22.08000755 5.75 25.625 C3.0625 27.5625 3.0625 27.5625 -0.5625 27.625 C-4.38449213 26.42178026 -5.08988875 26.01649136 -6.9375 22.5625 C-7.25796482 19.65522008 -7.40225233 17.02613451 -7.375 14.125 C-7.39498047 13.37412109 -7.41496094 12.62324219 -7.43554688 11.84960938 C-7.43210867 7.94036656 -7.18857919 5.97103563 -5.09375 2.5625 C-2.9375 0.5625 -2.9375 0.5625 0 0 Z " fill="#010302" transform="translate(198.9375,53.4375)"/>
<path d="M0 0 C2.15234375 1.43359375 2.15234375 1.43359375 4 4 C4.61943285 7.17563588 4.60387012 10.27313048 4.5625 13.5 C4.58634766 14.35464844 4.61019531 15.20929688 4.63476562 16.08984375 C4.62016102 22.3308789 4.62016102 22.3308789 1.625 25.5625 C-1.32642826 27.17875833 -2.70322371 27.6762618 -6 27 C-8.12109375 25.59765625 -8.12109375 25.59765625 -10 23 C-10.60071528 19.6379752 -10.55811112 16.34426427 -10.5 12.9375 C-10.51546875 12.02677734 -10.5309375 11.11605469 -10.546875 10.17773438 C-10.50796035 3.57683633 -10.50796035 3.57683633 -8.15625 0.90625 C-5.18650525 -0.34190359 -3.18985966 -0.46518787 0 0 Z " fill="#030202" transform="translate(352,214)"/>
<path d="M0 0 C2.15625 1.4375 2.15625 1.4375 4 4 C4.59463425 7.17643906 4.55833322 10.27708945 4.5 13.5 C4.51546875 14.35464844 4.5309375 15.20929688 4.546875 16.08984375 C4.50816113 22.29374216 4.50816113 22.29374216 2.15625 25.5625 C-0.80174382 27.53449588 -2.51468971 27.58088505 -6 27 C-8.15625 25.5625 -8.15625 25.5625 -10 23 C-10.59463425 19.82356094 -10.55833322 16.72291055 -10.5 13.5 C-10.51546875 12.64535156 -10.5309375 11.79070312 -10.546875 10.91015625 C-10.50816113 4.70625784 -10.50816113 4.70625784 -8.15625 1.4375 C-5.19825618 -0.53449588 -3.48531029 -0.58088505 0 0 Z " fill="#010302" transform="translate(352,54)"/>
<path d="M0 0 C3.90892508 2.7757931 6.61696185 5.4040077 7.75 10.125 C6.71538949 14.09100697 5.3472148 15.64982791 2 18 C-1.89713835 18.36084614 -3.96438299 17.82333536 -7.0390625 15.37890625 C-10.38833551 11.9562428 -11.9474606 10.06830107 -12.1875 5.1875 C-11 2 -11 2 -9.375 0 C-5.73258424 -1.53364874 -3.77593248 -1.1519794 0 0 Z " fill="#030805" transform="translate(258,53)"/>
<path d="M0 0 C1.9375 1.125 1.9375 1.125 3 3 C3.625 6.25 3.625 6.25 3 10 C0.29184002 13.93772687 -2.65743941 16.48982698 -7.125 18.1875 C-10 18 -10 18 -12.875 16.5 C-15 14 -15 14 -15.6875 10.6875 C-14.7871927 5.85857904 -12.56893771 3.27306723 -9 0 C-5.85000502 -1.57499749 -3.36459118 -0.70833498 0 0 Z " fill="#020403" transform="translate(299,53)"/>
</svg>
